<svg width="20" height="20" viewBox="0 0 20 20" fill="none" xmlns="http://www.w3.org/2000/svg">
<path d="M15.4982 13.258C16.7921 14.5546 18.2478 16.0133 19.5417 17.3099C20.3503 18.1202 20.0269 19.4168 19.0564 19.9031C18.4095 20.0651 17.9243 20.0651 17.4391 19.5789C16.1452 18.2823 14.8513 16.9857 13.5574 15.6891C13.3957 15.5271 13.2339 15.5271 12.9104 15.6891C9.51397 17.7961 4.98534 17.3099 2.39754 14.3925C-1.80762 10.0165 -0.190248 3.04733 4.98533 0.778291C9.99918 -1.49075 15.8217 1.42659 16.7921 6.61297C17.2773 8.88201 16.9539 10.989 15.66 12.9339C15.4982 13.0959 15.4982 13.0959 15.4982 13.258ZM8.54355 3.04733C5.63228 2.88526 3.20623 5.31637 3.04449 8.07164C2.88276 11.3131 5.47055 13.7442 8.05834 13.9063C11.2931 14.0684 13.8809 11.4752 13.8809 8.39579C13.8809 5.47845 11.2931 2.88526 8.54355 3.04733Z" fill="black"/>
</svg>
