<svg width="81" height="26" viewBox="0 0 81 26" fill="none" xmlns="http://www.w3.org/2000/svg">
<path d="M0.119507 2.08867H2.38737V6.80223H2.42343L4.56383 2.08867H6.94406L4.62504 7.20719L6.8472 12.1079H4.35419L2.42343 7.94225H2.38737V12.1079H0.119507V2.08867Z" fill="#FEFEFE"/>
<path d="M8.07446 2.08867H10.8815C11.8672 2.08867 12.6618 2.37042 13.2596 2.93685C13.86 3.50287 14.1586 4.24844 14.1586 5.17273C14.1586 6.14875 13.8546 6.9124 13.2492 7.4658C12.6437 8.0192 11.8035 8.2959 10.7306 8.2959H10.3423V12.1079H8.07446V2.08909V2.08867ZM10.3423 4.01001V6.37414C10.8505 6.36405 11.2262 6.26649 11.4689 6.07978C11.7087 5.89518 11.8316 5.60334 11.8316 5.20385C11.8316 4.77324 11.7142 4.46837 11.479 4.29175C11.2442 4.11261 10.866 4.02052 10.3423 4.01043V4.01001Z" fill="#FEFEFE"/>
<path d="M18.4653 12.356C17.2599 12.356 16.3379 11.8926 15.7044 10.9624C15.0708 10.0352 14.7543 8.69543 14.7543 6.94315C14.7543 5.32921 15.0733 4.06892 15.7094 3.16439C16.3454 2.26281 17.2318 1.80949 18.3684 1.80949C19.5818 1.80949 20.5088 2.26281 21.1499 3.16986C21.791 4.07397 22.11 5.3679 22.11 7.04827C22.11 8.73118 21.796 10.0352 21.165 10.9624C20.5315 11.8926 19.6321 12.356 18.4653 12.356ZM18.3835 4.08449C17.5664 4.08449 17.1576 5.04788 17.1576 6.97426C17.1576 8.21436 17.2599 9.04403 17.4666 9.45908C17.6733 9.87413 17.9747 10.0814 18.3684 10.0814C18.7923 10.0814 19.1194 9.87413 19.3466 9.45908C19.5713 9.04403 19.6862 8.2295 19.6862 7.02051C19.6862 5.06344 19.2518 4.08449 18.3835 4.08449Z" fill="#FEFEFE"/>
<path d="M23.4547 2.08867H25.723V5.8035H27.7355V2.08867H30.0009V12.1079H27.7355V7.94225H25.723V12.1079H23.4547V2.08867Z" fill="#FEFEFE"/>
<path d="M34.9907 12.3551C33.7848 12.3551 32.8628 11.8913 32.2293 10.9615C31.5958 10.0339 31.2788 8.69413 31.2788 6.94185C31.2788 5.32749 31.5983 4.06678 32.2343 3.16268C32.8704 2.26067 33.7567 1.80736 34.8938 1.80736C36.1072 1.80736 37.0346 2.26068 37.6757 3.16773C38.3168 4.07225 38.6363 5.36618 38.6363 7.04698C38.6363 8.7303 38.3218 10.0343 37.6908 10.962C37.0573 11.8921 36.1579 12.3556 34.9907 12.3556V12.3551ZM34.9089 4.08193C34.0913 4.08193 33.6825 5.04533 33.6825 6.97212C33.6825 8.21222 33.7848 9.04232 33.9915 9.45737C34.1982 9.87242 34.4997 10.0801 34.8934 10.0801C35.3173 10.0801 35.6443 9.87284 35.8716 9.45737C36.0963 9.04232 36.2112 8.22737 36.2112 7.01838C36.2112 5.06089 35.7768 4.08235 34.9085 4.08235L34.9089 4.08193Z" fill="#FEFEFE"/>
<path d="M49.0397 2.08867H51.308V6.80223H51.3436L53.484 2.08867H55.8642L53.5452 7.20719L55.7674 12.1079H53.2744L51.3436 7.94225H51.308V12.1079H49.0397V2.08867Z" fill="#FEFEFE"/>
<path d="M56.9946 12.1062H59.2835L62.1643 6.32706L62.0825 7.4082V12.1062H64.3508V2.08786H62.0238L59.2017 7.77699L59.2629 6.52975V2.08786H56.9946V12.1062Z" fill="#FEFEFE"/>
<path d="M66.5 12.1062H68.7884L71.6697 6.32706L71.5879 7.4082V12.1062H73.8562V2.08786H71.5292L68.7071 7.77699L68.7683 6.52975V2.08786H66.5V12.1062Z" fill="#FEFEFE"/>
<path d="M2.37226 18.7709H0.186159C0.196221 18.1969 0.247373 17.7487 0.339614 17.4286C0.433951 17.1086 0.592437 16.7958 0.819684 16.4913C1.04693 16.1839 1.34336 15.9379 1.71358 15.7508C2.08422 15.5637 2.48253 15.4691 2.91145 15.4691C3.6804 15.4691 4.31351 15.7458 4.81161 16.2991C5.30971 16.8525 5.56001 17.5544 5.56001 18.4047C5.56001 19.3933 5.1768 20.1721 4.41581 20.7385C5.31222 21.2019 5.76169 22.0345 5.76169 23.2284C5.76169 23.7048 5.64932 24.1787 5.42962 24.6527C5.2074 25.1241 4.88288 25.4672 4.459 25.68C4.03511 25.8923 3.53953 26 2.97015 26C2.11692 26 1.41967 25.7464 0.875867 25.2443C0.332066 24.7422 0.0406697 24.0505 0 23.1695H2.14795C2.15801 23.7843 2.40329 24.0917 2.88084 24.0917C3.35085 24.0917 3.58313 23.6716 3.58313 22.8314C3.58313 22.442 3.51688 22.1704 3.37894 22.0169C3.241 21.8659 2.99824 21.789 2.64856 21.789H1.96137V19.7087H2.70978C3.02885 19.7087 3.25651 19.6267 3.39446 19.4576C3.52988 19.2911 3.59864 19.0169 3.59864 18.638C3.59864 17.8159 3.36888 17.4059 2.91187 17.4059C2.6972 17.4059 2.55423 17.4905 2.48044 17.6625C2.40874 17.8315 2.3731 18.1309 2.3731 18.5615V18.7718L2.37226 18.7709Z" fill="#FEFEFE"/>
<path d="M14.6201 25.7364H12.2625L11.8822 24.0636H9.48901L9.09028 25.7364H6.77881L9.42737 15.7176H11.9711L14.6197 25.7364H14.6201ZM11.4479 22.2629C11.1078 20.7722 10.8554 19.3525 10.6839 18.0056H10.6559C10.4747 19.3916 10.2244 20.8109 9.8999 22.2629H11.4479Z" fill="#FEFEFE"/>
<path d="M15.7665 15.7146C17.9501 15.7146 20.1303 15.7146 22.3139 15.7146V25.7351H20.0481V17.853H18.0348V25.7351H15.7665V15.7146Z" fill="#FEFEFE"/>
<path d="M27.7103 25.9849C26.5044 25.9849 25.5829 25.5211 24.9493 24.5913C24.3158 23.6641 23.9993 22.3239 23.9993 20.572C23.9993 18.9581 24.3183 17.6978 24.9544 16.7937C25.5904 15.8921 26.4768 15.4384 27.6134 15.4384C28.8268 15.4384 29.7538 15.8917 30.3949 16.7987C31.036 17.7028 31.355 18.9968 31.355 20.6771C31.355 22.36 31.041 23.6641 30.41 24.5913C29.7765 25.5211 28.8775 25.9849 27.7103 25.9849ZM27.6285 17.7134C26.8113 17.7134 26.4026 18.6763 26.4026 20.6027C26.4026 21.8428 26.5044 22.6725 26.7116 23.0875C26.9183 23.5026 27.2197 23.7099 27.613 23.7099C28.0369 23.7099 28.3639 23.5026 28.5912 23.0875C28.8159 22.6725 28.9308 21.858 28.9308 20.649C28.9308 18.6919 28.4964 17.7134 27.6281 17.7134H27.6285Z" fill="#FEFEFE"/>
<path d="M33.0402 15.7176H35.3441C36.6874 15.7176 37.653 15.9813 38.2404 16.509C38.8304 17.0368 39.1243 17.7079 39.1243 18.525C39.1243 19.4038 38.6949 20.1132 37.8367 20.6486C38.8098 21.0329 39.2949 21.7654 39.2949 22.8466C39.2949 23.7124 38.9935 24.4092 38.391 24.9395C37.7859 25.4698 36.9914 25.7364 36.0028 25.7364H33.0402V15.7176ZM35.308 17.6389V19.8008C36.3193 19.7752 36.825 19.4215 36.825 18.7428C36.825 18.3357 36.705 18.054 36.4623 17.8925C36.222 17.7336 35.8367 17.649 35.308 17.6389ZM35.308 21.617V23.7843C35.8799 23.7738 36.3118 23.6868 36.5977 23.5177C36.8837 23.3512 37.0266 23.0745 37.0266 22.6902C37.0266 21.9728 36.5155 21.6166 35.4942 21.6166H35.3076L35.308 21.617Z" fill="#FEFEFE"/>
<path d="M40.8546 15.7176H45.4419V17.8488H43.1225V19.6957H45.1354V21.7734H43.1225V23.5972H45.457V25.7364H40.8546V15.7176Z" fill="#FEFEFE"/>
<path d="M54.871 25.7347V23.9336H54.2798L51.8178 15.7146H49.7156L47.2117 23.9336H46.6108V25.7347C49.3638 25.7347 52.118 25.7347 54.871 25.7347ZM49.529 23.9336L50.2623 21.3079C50.4971 20.4315 50.6556 19.6835 50.7399 19.0636H50.7705C50.8447 19.6094 50.929 20.0552 51.0187 20.4063L51.9302 23.934H49.5294L49.529 23.9336Z" fill="#FEFEFE"/>
<path d="M55.7037 15.7176H57.972V19.432H59.9845V15.7176H62.2503V25.7364H59.9845V21.5712H57.972V25.7364H55.7037V15.7176Z" fill="#FEFEFE"/>
<path d="M64.392 25.7342H66.6804L69.5612 19.9555L69.4795 21.0362V25.7342H71.7478V15.7155H69.4208L66.5982 21.405L66.6598 20.1574V15.7155H64.392V25.7342Z" fill="#FEFEFE"/>
<path d="M73.8977 15.7176H76.1656V20.4312H76.2016L78.342 15.7176H80.7223L78.4032 20.8361L80.625 25.7364H78.1324L76.2016 21.5712H76.1656V25.7364H73.8977V15.7176Z" fill="#FEFEFE"/>
<path d="M40.0471 2.08618H42.3158V9.96283H44.3288V2.08618H46.5945V9.96283H47.4415V12.1062V13.2504H45.304V12.1062H40.0471V2.08618Z" fill="#FEFEFE"/>
<path d="M68.2287 0.412104C68.3096 0.608904 68.4069 0.787622 68.5197 0.948257C68.9167 1.51132 69.4698 1.79432 70.1796 1.79432C70.9368 1.79432 71.5154 1.51132 71.9158 0.945311C72.0286 0.786357 72.125 0.608482 72.2059 0.410841L70.7578 0C70.6232 0.249364 70.4341 0.374262 70.1888 0.374262C69.9586 0.374262 69.7804 0.251884 69.6542 0.00756635L68.2283 0.412104H68.2287Z" fill="#FEFEFE"/>
</svg>
