<svg width="78" height="41" viewBox="0 0 78 41" fill="none" xmlns="http://www.w3.org/2000/svg">
<path d="M36.0238 13.1654V15.1696H34.5296V9.66585H36.3427C37.846 9.66585 38.5976 10.208 38.5976 11.2911C38.5976 11.9284 38.2851 12.4218 37.66 12.7698L39.2716 15.1696H37.5773L36.4034 13.1654H36.0238ZM36.0238 12.0476H36.304C36.827 12.0476 37.0894 11.8176 37.0894 11.359C37.0894 10.9799 36.8323 10.7911 36.3196 10.7911H36.0238V12.0475V12.0476ZM44.4776 9.66571V12.979C44.4776 13.6998 44.2735 14.2586 43.8628 14.6531C43.4535 15.0487 42.862 15.2465 42.0896 15.2465C41.3354 15.2465 40.7556 15.0551 40.3513 14.6709C39.9458 14.2869 39.7445 13.7344 39.7445 13.0137V9.66557H41.2465V12.8953C41.2465 13.2833 41.3187 13.566 41.466 13.7421C41.6119 13.918 41.8276 14.0053 42.1129 14.0053C42.4191 14.0053 42.6399 13.918 42.778 13.7432C42.9149 13.5697 42.9834 13.2833 42.9834 12.8877V9.66557H44.4776V9.66571ZM49.2547 13.4994C49.2547 13.8411 49.1681 14.1444 48.9938 14.4089C48.8194 14.6736 48.5689 14.8791 48.2409 15.027C47.913 15.1734 47.5281 15.2467 47.0877 15.2467C46.7196 15.2467 46.4096 15.221 46.1604 15.1696C45.911 15.1182 45.6515 15.0283 45.3816 14.8998V13.5741C45.6658 13.7193 45.9627 13.8323 46.2702 13.9145C46.5775 13.9955 46.8603 14.0366 47.1174 14.0366C47.3396 14.0366 47.5023 13.9981 47.6055 13.9224C47.7089 13.8465 47.7605 13.7476 47.7605 13.6281C47.7605 13.5524 47.7399 13.4868 47.6972 13.4303C47.6559 13.3738 47.5888 13.3172 47.4971 13.2594C47.4054 13.2016 47.1601 13.0835 46.7609 12.9049C46.4006 12.7417 46.1307 12.5837 45.9498 12.4308C45.7703 12.278 45.6359 12.1019 45.5494 11.9041C45.463 11.7063 45.419 11.4711 45.419 11.2C45.419 10.6937 45.6036 10.2981 45.9742 10.0141C46.3449 9.7303 46.8551 9.58896 47.5033 9.58896C48.0754 9.58896 48.6592 9.72002 49.2546 9.98329L48.7973 11.1292C48.2795 10.8942 47.8339 10.7758 47.4582 10.7758C47.2644 10.7758 47.1224 10.8105 47.0346 10.8787C46.9455 10.9467 46.9015 11.0316 46.9015 11.1318C46.9015 11.2397 46.9583 11.3373 47.0707 11.422C47.1831 11.5069 47.4866 11.6623 47.9839 11.8885C48.4603 12.1018 48.7909 12.3316 48.9769 12.5757C49.1617 12.8212 49.2546 13.1282 49.2546 13.4995L49.2547 13.4994ZM53.727 13.4994C53.727 13.8411 53.6404 14.1444 53.4661 14.4089C53.2917 14.6736 53.0412 14.8791 52.7132 15.027C52.3852 15.1734 52.0003 15.2467 51.56 15.2467C51.1918 15.2467 50.8819 15.221 50.6327 15.1696C50.3833 15.1182 50.1238 15.0283 49.8539 14.8998V13.5741C50.138 13.7193 50.435 13.8323 50.7425 13.9145C51.0498 13.9955 51.3326 14.0366 51.5897 14.0366C51.8118 14.0366 51.9746 13.9981 52.0778 13.9224C52.1811 13.8465 52.2328 13.7476 52.2328 13.6281C52.2328 13.5524 52.2122 13.4868 52.1695 13.4303C52.1282 13.3738 52.0611 13.3172 51.9693 13.2594C51.8776 13.2016 51.6323 13.0835 51.2332 12.9049C50.8729 12.7417 50.603 12.5837 50.422 12.4308C50.2426 12.278 50.1082 12.1019 50.0217 11.9041C49.9353 11.7063 49.8913 11.4711 49.8913 11.2C49.8913 10.6937 50.0759 10.2981 50.4465 10.0141C50.8171 9.7303 51.3274 9.58896 51.9756 9.58896C52.5477 9.58896 53.1314 9.72002 53.7268 9.98329L53.2696 11.1292C52.7518 10.8942 52.3062 10.7758 51.9305 10.7758C51.7367 10.7758 51.5946 10.8105 51.5069 10.8787C51.4178 10.9467 51.3738 11.0316 51.3738 11.1318C51.3738 11.2397 51.4306 11.3373 51.543 11.422C51.6553 11.5069 51.9589 11.6623 52.4561 11.8885C52.9326 12.1018 53.2632 12.3316 53.4492 12.5757C53.634 12.8212 53.7268 13.1282 53.7268 13.4995L53.727 13.4994ZM54.5832 15.1695V9.66571H56.0853V15.1695H54.5832ZM60.6737 15.1695L60.4025 14.1365H58.6048L58.3259 15.1695H56.6831L58.4873 9.64268H60.4814L62.3088 15.1695H60.6737ZM60.0913 12.9187L59.8535 12.0143C59.7981 11.8139 59.7308 11.5544 59.6509 11.2358C59.572 10.9159 59.5192 10.6885 59.4947 10.5498C59.4714 10.6782 59.4263 10.8889 59.3603 11.1831C59.2932 11.476 59.1448 12.0554 58.9149 12.9188H60.0914L60.0913 12.9187ZM68.1733 15.1695H66.2129L64.1929 11.2923H64.1594C64.2072 11.9025 64.2305 12.3675 64.2305 12.6887V15.1695H62.9068V9.66571H64.8595L66.8716 13.4904H66.8947C66.8586 12.9353 66.8419 12.4909 66.8419 12.1542V9.66571H68.1735V15.1695H68.1733ZM38.5448 19.3437C38.5448 19.9592 38.3627 20.4332 37.9985 20.7686C37.6329 21.1038 37.1151 21.2708 36.4448 21.2708H36.0238V23.0977H34.5296V17.594H36.4448C37.1435 17.594 37.6677 17.7456 38.0191 18.0488C38.3691 18.3534 38.5448 18.785 38.5448 19.3439V19.3437ZM36.0239 20.0606H36.2964C36.5212 20.0606 36.7007 19.9976 36.8324 19.873C36.9655 19.7472 37.0313 19.5737 37.0313 19.3527C37.0313 18.9814 36.8246 18.7963 36.41 18.7963H36.0239V20.0606ZM40.9198 21.0935V23.0977H39.4256V17.594H41.2388C42.7421 17.594 43.4937 18.1361 43.4937 19.2192C43.4937 19.8565 43.1811 20.3499 42.556 20.6979L44.1677 23.0977H42.4734L41.2995 21.0935H40.9198ZM40.9198 19.9757H41.2C41.7231 19.9757 41.9854 19.7457 41.9854 19.2871C41.9854 18.908 41.7283 18.7192 41.2156 18.7192H40.9198V19.9756V19.9757ZM49.8463 20.3393C49.8463 21.2656 49.6189 21.9696 49.1618 22.4514C48.7059 22.9332 48.037 23.1748 47.1561 23.1748C46.2882 23.1748 45.6233 22.9319 45.1596 22.4477C44.6973 21.9633 44.4661 21.258 44.4661 20.333C44.4661 19.4169 44.696 18.7168 45.157 18.2337C45.6168 17.7508 46.2858 17.5092 47.164 17.5092C48.0448 17.5092 48.7111 17.7495 49.1658 18.2287C49.6204 18.7079 49.8463 19.4119 49.8463 20.3395V20.3393ZM46.0405 20.338C46.0405 21.4017 46.4124 21.9337 47.1563 21.9337C47.5348 21.9337 47.8163 21.804 47.9983 21.5458C48.1817 21.2876 48.2734 20.8854 48.2734 20.3382C48.2734 19.7883 48.1804 19.3824 47.9943 19.1203C47.8096 18.8582 47.532 18.7271 47.164 18.7271C46.4149 18.7271 46.0405 19.2641 46.0405 20.3382V20.338ZM53.0543 23.0976H51.5601V18.8118H50.2079V17.5938H54.4026V18.8118H53.0543V23.0976ZM58.4772 23.0976H55.1917V17.5938H58.4772V18.7887H56.6859V19.652H58.3441V20.8468H56.6859V21.8874H58.4772V23.0976ZM61.9073 18.7346C61.5521 18.7346 61.2745 18.8799 61.0755 19.1688C60.8753 19.4591 60.7759 19.8587 60.7759 20.3687C60.7759 21.4275 61.1815 21.9567 61.9911 21.9567C62.2353 21.9567 62.4728 21.9233 62.7027 21.8552C62.9312 21.7872 63.1624 21.7062 63.3949 21.6098V22.8688C62.9326 23.0731 62.4108 23.1745 61.8282 23.1745C60.9927 23.1745 60.3534 22.9329 59.9078 22.4511C59.4622 21.9693 59.2401 21.2731 59.2401 20.3622C59.2401 19.7931 59.3472 19.292 59.563 18.8605C59.7786 18.4288 60.0886 18.0973 60.4941 17.8648C60.8996 17.6322 61.3749 17.5166 61.9224 17.5166C62.5203 17.5166 63.0912 17.6451 63.6361 17.9033L63.179 19.0737C62.9749 18.9774 62.7697 18.8976 62.5656 18.8321C62.3615 18.7665 62.1419 18.7345 61.907 18.7345L61.9073 18.7346ZM66.9143 23.0976H65.4201V18.8118H64.0679V17.5938H68.2625V18.8118H66.9143V23.0976ZM72.3371 23.0976H69.0517V17.5938H72.3371V18.7887H70.5458V19.652H72.2041V20.8468H70.5458V21.8874H72.3371V23.0976ZM78.0002 20.2288C78.0002 21.1474 77.7457 21.8552 77.2381 22.3524C76.7293 22.8497 76.0152 23.0976 75.0944 23.0976H73.3044V17.5938H75.2196C76.1069 17.5938 76.7927 17.82 77.2757 18.271C77.7587 18.7232 78.0002 19.3759 78.0002 20.229V20.2288ZM76.4491 20.284C76.4491 19.7792 76.3484 19.4053 76.1482 19.1613C75.948 18.9184 75.6432 18.7963 75.2339 18.7963H74.7986V21.8797H75.1318C75.5864 21.8797 75.9197 21.7486 76.1315 21.4865C76.3433 21.2244 76.4491 20.8236 76.4491 20.284ZM37.9225 31.0258L37.6513 29.9929H35.8536L35.5747 31.0258H33.9319L35.7361 25.499H37.7302L39.5575 31.0258H37.9225ZM37.34 28.775L37.1023 27.8706C37.0468 27.6702 36.9796 27.4107 36.8997 27.0921C36.8208 26.7722 36.7679 26.5449 36.7435 26.4061C36.7202 26.5346 36.6751 26.7453 36.6091 27.0394C36.542 27.3324 36.3935 27.9118 36.1637 28.7751H37.3402L37.34 28.775ZM41.6497 29.0216V31.0258H40.1555V25.5221H41.9687C43.472 25.5221 44.2236 26.0642 44.2236 27.1473C44.2236 27.7846 43.911 28.278 43.2859 28.626L44.8976 31.0258H43.2033L42.0294 29.0216H41.6497ZM41.6497 27.9038H41.9299C42.453 27.9038 42.7153 27.6738 42.7153 27.2152C42.7153 26.8361 42.4582 26.6472 41.9455 26.6472H41.6497V27.9037V27.9038ZM48.6855 31.0257H45.4001V25.5219H48.6855V26.7168H46.8942V27.5801H48.5525V28.7749H46.8942V29.8155H48.6855V31.0257ZM53.0454 31.0257L52.7742 29.9927H50.9765L50.6976 31.0257H49.0548L50.8591 25.4989H52.8531L54.6805 31.0257H53.0454ZM52.463 28.7749L52.2253 27.8705C52.1698 27.6701 52.1025 27.4106 52.0226 27.092C51.9437 26.7721 51.8909 26.5447 51.8664 26.406C51.8431 26.5344 51.798 26.7451 51.7321 27.0393C51.6649 27.3322 51.5165 27.9116 51.2866 28.775H52.4631L52.463 28.7749ZM58.8944 29.3556C58.8944 29.6973 58.8078 30.0005 58.6335 30.2651C58.4591 30.5298 58.2086 30.7353 57.8806 30.8832C57.5526 31.0296 57.1677 31.1029 56.7274 31.1029C56.3592 31.1029 56.0493 31.0772 55.8001 31.0258C55.5507 30.9744 55.2912 30.8845 55.0213 30.756V29.4303C55.3054 29.5755 55.6024 29.6885 55.9098 29.7707C56.2171 29.8517 56.5 29.8928 56.7571 29.8928C56.9792 29.8928 57.142 29.8543 57.2452 29.7786C57.3485 29.7027 57.4002 29.6038 57.4002 29.4843C57.4002 29.4086 57.3795 29.343 57.3369 29.2865C57.2955 29.23 57.2284 29.1734 57.1367 29.1156C57.045 29.0578 56.7997 28.9396 56.4006 28.7611C56.0403 28.5979 55.7704 28.4399 55.5894 28.287C55.4099 28.1342 55.2756 27.9581 55.1891 27.7603C55.1026 27.5625 55.0587 27.3273 55.0587 27.0562C55.0587 26.5499 55.2433 26.1543 55.6139 25.8703C55.9845 25.5865 56.4948 25.4452 57.143 25.4452C57.7151 25.4452 58.2988 25.5762 58.8942 25.8395L58.437 26.9854C57.9192 26.7504 57.4736 26.632 57.0979 26.632C56.9041 26.632 56.762 26.6667 56.6742 26.7349C56.5852 26.8029 56.5412 26.8878 56.5412 26.988C56.5412 27.0959 56.598 27.1935 56.7103 27.2782C56.8227 27.3631 57.1262 27.5184 57.6235 27.7446C58.1 27.958 58.4306 28.1878 58.6166 28.4319C58.8014 28.6774 58.8942 28.9844 58.8942 29.3557L58.8944 29.3556Z" fill="#FEFEFE"/>
<path fill-rule="evenodd" clip-rule="evenodd" d="M30.3359 7.76185V9.19652V27.6872C30.3106 33.0665 27.5272 35.2096 24.223 36.4814C21.1704 37.7714 17.7296 38.3072 15.8164 40.2355C15.5803 40.4732 15.3625 40.7298 15.1687 40.9999C14.9747 40.7298 14.757 40.473 14.5209 40.2355C12.6077 38.3072 9.16692 37.7714 6.11397 36.4814C2.80991 35.2095 0.0265643 33.0665 0.00123473 27.6872V9.19652V8.82811V7.76185V2.29211C-0.0261329 1.87432 0.445813 2.06229 2.03314 2.98446C3.58115 3.88375 4.77266 3.79208 4.98229 4.01206C5.20487 4.24593 4.61414 4.59942 4.05499 4.67154C3.58305 4.73221 2.9319 4.55149 2.93117 4.63331C2.922 5.55968 5.83272 5.2434 6.5504 5.4208C6.96528 5.52333 6.54021 6.20279 5.72485 6.41929C4.96861 6.62 4.35531 6.35948 4.38573 6.49169C4.56202 7.25588 5.76809 7.18217 7.22032 6.94887C7.69037 6.87328 8.4903 6.78263 9.21714 6.69805C9.28687 6.68994 9.35587 6.68155 9.42385 6.67271L9.42735 6.67517C10.2808 6.57598 10.9796 6.39525 10.8439 6.07405C8.90459 6.50111 7.75705 5.45193 8.3932 5.22313C8.88611 5.04588 11.1298 5.10453 12.4324 4.36453C12.8039 4.15354 11.8603 4.48603 10.9885 4.31631C10.4938 4.22001 10.0468 3.86941 10.3558 3.66581C10.7042 3.43628 12.2889 3.26757 13.1325 2.72553C13.3844 2.56363 13.343 2.45386 13.1907 2.50802C12.003 2.93073 11.0412 2.47892 11.773 2.14947C13.1969 1.50852 14.3206 0.761574 15.0684 0.0285283C15.0824 0.014771 15.1387 -0.0066614 15.1687 0.0020274C15.1987 -0.0066614 15.2548 0.014771 15.2689 0.0285283C16.0167 0.761574 17.1404 1.50852 18.5643 2.14947C19.2961 2.47906 18.3343 2.93088 17.1468 2.50802C16.9944 2.45386 16.9529 2.56363 17.2048 2.72553C18.0484 3.26757 19.6333 3.43628 19.9814 3.66581C20.2905 3.86941 19.8435 4.22001 19.3488 4.31631C18.477 4.48603 17.5333 4.15354 17.9049 4.36453C19.2075 5.10453 21.4512 5.04588 21.944 5.22313C22.5803 5.45193 21.4326 6.50111 19.4932 6.07405C19.3576 6.3951 20.0591 6.56251 20.9133 6.67286L20.9165 6.67329L20.9197 6.67358L20.9229 6.67402L20.9261 6.6743L20.9293 6.67459L20.9325 6.67517L20.9357 6.67561L20.9389 6.6759L20.9421 6.67619L20.9446 6.67648L20.9455 6.67662L20.9487 6.67691L20.9519 6.67735L20.9551 6.67764L20.9583 6.67793L20.9615 6.67836L20.9647 6.67865L20.9679 6.67908L20.9711 6.67937L20.9743 6.67981L20.9775 6.6801L20.9807 6.68039L20.9841 6.68082L20.9873 6.68111L20.9883 6.68126L20.9903 6.68155L20.9935 6.68184L20.9967 6.68212L21.0001 6.68256L21.0033 6.68285L21.0065 6.68328L21.0097 6.68357L21.013 6.68386L21.0162 6.6843L21.0194 6.68459L21.0226 6.68502L21.0258 6.68531L21.029 6.6856L21.0319 6.68603H21.0324L21.0356 6.68632L21.0388 6.68676L21.0421 6.68705L21.0453 6.68748L21.0485 6.68777L21.0519 6.68806L21.0551 6.6885L21.0583 6.68879L21.0615 6.68922L21.0647 6.68951L21.0679 6.6898L21.0711 6.69023L21.0743 6.69052L21.0758 6.69067L21.0777 6.69081L21.0809 6.69125L21.0842 6.69154L21.0874 6.69183L21.0908 6.69226L21.094 6.69255L21.0973 6.69299L21.1005 6.69328L21.1037 6.69356L21.1071 6.694L21.1103 6.69429L21.1136 6.69458L21.1168 6.69501L21.1202 6.6953C21.8472 6.77987 22.6471 6.87053 23.1173 6.94612C24.5694 7.17941 25.7756 7.25312 25.9519 6.48894C25.9823 6.35673 25.369 6.61725 24.6126 6.41654C23.7974 6.20004 23.3722 5.52058 23.7871 5.41805C24.505 5.24065 27.4156 5.55692 27.4063 4.63055C27.4057 4.54873 26.7544 4.72946 26.2825 4.66878C25.7235 4.59667 25.1324 4.24318 25.3552 4.0093C25.5646 3.78933 26.7563 3.881 28.3043 2.98171C29.8916 2.05968 30.3634 1.87157 30.3362 2.28936V7.7591L30.3359 7.76185ZM14.687 11.719C14.9952 11.6473 15.2818 11.5205 15.5593 11.3871C17.3712 10.5544 19.2733 11.3343 20.4051 12.5188C21.3065 13.4223 21.6177 14.5023 22.2567 15.4249C22.3779 15.5997 22.4814 15.7296 22.673 15.7486C24.3264 14.9724 25.0905 15.849 25.1921 17.0054C25.2048 17.1491 25.1853 17.2163 25.1666 17.2248C25.1563 17.2295 25.1463 17.2167 25.1419 17.1896C25.1212 17.0599 25.1211 16.9797 25.0623 16.8545C24.9505 16.6169 24.7981 16.4505 24.5504 16.4062C23.8293 16.2691 23.1534 16.7855 22.7605 17.5078C22.466 18.0493 22.665 18.2274 23.0298 18.3576C23.3006 18.4544 23.6974 18.2747 24.2837 18.7069C25.103 19.3113 25.5313 21.0279 25.4926 21.6857C25.4511 22.3886 25.1979 22.8681 24.7305 23.3037C24.5628 23.4599 24.3242 23.6881 24.0759 23.6017C23.8761 23.5323 23.822 23.4679 23.9095 23.2841C24.0402 23.0088 24.407 22.4999 24.3503 22.1127C24.2982 21.7579 24.2535 21.6528 23.9268 21.2506C23.1912 20.3447 21.7685 22.0816 21.623 20.8985C21.4717 19.668 20.322 19.1616 20.3317 19.5465C20.3349 19.6709 20.4596 19.8248 20.512 19.9575C20.6522 20.313 20.9378 21.2599 20.6436 21.4697C20.4548 21.6043 19.9653 21.592 19.5787 21.5629C19.1022 21.5269 18.7057 21.5015 18.2247 21.6099C17.7564 21.7153 17.6512 21.9262 17.5344 22.3444C17.327 23.0882 17.4849 23.4343 18.2287 23.7388C18.8808 24.0056 19.3867 23.7327 19.4951 23.298C19.6889 22.5208 20.1726 22.386 20.7051 22.1827C21.21 21.9898 21.7185 22.0583 21.9477 22.396C22.1815 22.74 22.2249 23.296 23.1123 24.9845C23.4579 25.6421 23.3995 25.7503 22.6814 25.9303C22.1827 26.0554 21.6153 26.0567 21.2908 26.0693C20.9714 26.0813 20.9319 26.1789 20.9238 26.5161C20.9161 26.8397 21.0975 27.0442 21.3103 27.197C21.5311 27.3552 21.7557 27.4812 22.0106 27.4491C22.2639 27.4171 22.8522 27.2461 22.9692 26.8084C23.0356 26.4939 23.1029 26.512 23.1978 26.6331C23.1605 28.582 20.8823 28.5882 19.8022 27.2828C19.1875 26.5404 19.1905 26.6126 18.8944 26.2948C17.1466 25.1687 16.1566 27.909 13.5631 23.4604C13.5258 23.3961 13.4518 23.3791 13.3807 23.4254C13.3249 23.4618 13.2699 23.4992 13.2163 23.5371C9.81588 25.9414 10.5842 31.5002 11.7667 33.62C12.1343 34.2791 12.7113 35.4138 11.7254 34.3402C10.7988 33.3317 10.273 32.2148 9.91807 31.0216C9.43754 29.4064 9.21656 27.8068 9.11174 26.1345C9.07797 25.5953 9.02906 24.9694 8.9142 24.1492C8.58055 21.7739 6.70776 21.5658 5.80521 22.918C5.31449 23.6537 5.11651 24.8537 5.02742 25.7475C5.00121 26.0104 4.9983 26.2112 5.00835 26.4015C5.02814 26.7818 4.96366 27.0417 4.81241 26.4555C4.02733 23.4136 4.22298 17.671 6.72814 15.6057C7.1321 15.2727 7.5646 14.9608 7.98778 14.6456C8.47545 14.2824 8.865 14.003 9.34859 13.6245C10.0182 13.1004 10.7192 12.6089 11.4157 12.1081C12.1201 11.5997 12.946 11.4242 13.6789 11.6463C14.044 11.757 14.3764 11.7674 14.6869 11.719H14.687ZM16.407 17.4993C16.7927 17.7502 17.1031 18.253 16.7454 18.63C16.2168 19.1868 15.6734 18.9691 14.7502 20.4867C13.8046 22.0426 13.4996 20.613 13.4181 19.7304C13.3256 18.7297 13.3371 17.6325 13.9663 17.2258C14.6418 16.7891 15.5629 16.9497 16.407 17.4993ZM19.7869 16.8069C19.5074 16.9944 19.7588 17.0524 20.5306 17.2377C20.7788 17.2677 21.0736 17.6526 20.3393 17.6011C19.6953 17.5559 19.2075 17.61 18.577 17.7609C17.6053 17.9936 17.7299 17.2157 18.0908 16.9956C19.1522 16.3477 16.9773 15.6532 15.0725 15.4918C10.7628 15.1262 14.9186 12.0774 17.3276 12.0922C18.3307 12.0986 19.7279 12.8368 20.2945 13.6797C20.7411 14.3442 20.715 14.656 20.1435 15.2536C19.5375 15.8866 20.3927 15.822 20.4859 16.3648C20.5302 16.6227 20.162 16.55 19.7869 16.8068V16.8069ZM13.7744 12.6635C13.6864 12.7155 13.3836 12.7263 13.0243 12.913C12.4111 13.2313 11.624 13.8876 11.7032 13.4933C11.8987 12.5873 12.6334 12.2551 13.6824 12.4545C13.7593 12.4692 13.9516 12.5589 13.7743 12.6634L13.7744 12.6635Z" fill="#FEFEFE"/>
</svg>
